<svg xmlns="http://www.w3.org/2000/svg" viewBox="0 0 32 32" enable-background="new 0 0 32 32"><path fill-rule="evenodd" clip-rule="evenodd" fill="#5AB552" d="M10.4 6.1l-2.2-.8c.5-.3 1.1-.6 1.7-.8 1.2-.5 2.5-.8 3.8-.9l1.4 1.6-.6 1.7c-1.3.1-2.5.6-3.6 1.2-.1 0-.2.1-.2.2l-.3-2.2zm-3.3 6.3c.1-.1.1-.2.2-.4.7-1.4 1.6-2.5 2.8-3.4l-.3-2.1-2.2-.9c-.7.5-1.4 1.1-2.1 1.8-1.1 1.1-1.9 2.3-2.6 3.7l2.6-.5 1.6 1.8zm15.8 7.1l-.6 1.2c-1 1.6-2.3 2.8-4 3.5h-.1l-.8 3.5 3 2.5h.1c1.8-.6 3.3-1.4 4.7-2.6 1.4-1.2 2.5-2.6 3.3-4.2.3-.6.6-1.2.8-1.9l-4.1.9-2.3-2.9zm7.2-6.4c-.4-1.8-1-3.4-1.9-5-.2-.4-.5-.7-.7-1.1l-1.6 4.3-4.4.5c.9 1 1.5 2.2 1.8 3.6.2 1.2.2 2.3-.1 3.4l2.4 2.9 4.1-.9c.3-.8.4-1.6.6-2.5.2-1.7.1-3.5-.2-5.2zM6.7 18.5l-.3-1.2c-.2-1.5-.1-2.9.4-4.2l-1.5-1.9-2.6.6c-.7 1.7-1 3.4-1 5.2 0 1.1.1 2.2.4 3.2l2-2.4 2.6.7zm4 5.2c-.7-.4-1.4-1-2-1.6-.8-.9-1.4-1.8-1.8-2.9l-2.8-.6-2 2.4c.1.5.3.9.5 1.4.7 1.7 1.7 3.2 2.9 4.5.8.8 1.6 1.5 2.5 2l-.1-3.6 2.8-1.6zm6.9.8c-1.4.5-2.9.5-4.4.2-.7-.2-1.3-.4-1.9-.7l-2.7 1.6.1 3.6c.4.2.9.4 1.3.6 1.7.7 3.4 1.1 5.2 1.2 1.6.1 3.1-.1 4.6-.5l-3-2.5.8-3.5zM14.2 9h1.2c1.9.2 3.5.8 5 2 .1.1.3.2.4.3l4.5-.5L27 6.4c-.7-.9-1.5-1.7-2.4-2.4-1.4-1.1-3-1.9-4.8-2.4-.8-.2-1.7-.4-2.5-.5-.6 0-1.2-.1-1.9-.1-1 0-2 0-3.1.1L15.8 5l-1.6 4z"/></svg>