<svg xmlns="http://www.w3.org/2000/svg" viewBox="0 0 32 32" enable-background="new 0 0 32 32"><path fill-rule="evenodd" clip-rule="evenodd" fill="#3F729B" d="M26.8 13.8h-2.4c.2.7.3 1.4.3 2.2 0 4.8-3.9 8.6-8.6 8.6-4.8 0-8.6-3.9-8.6-8.6 0-.7.1-1.5.3-2.2H5.2v11.8c0 .6.5 1.1 1.1 1.1h19.4c.6 0 1.1-.5 1.1-1.1V13.8zm0-7.5c0-.6-.5-1.1-1.1-1.1h-3.2c-.6 0-1.1.5-1.1 1.1v3.2c0 .6.5 1.1 1.1 1.1h3.2c.6 0 1.1-.5 1.1-1.1V6.3zM16 10.6c-3 0-5.4 2.4-5.4 5.4 0 3 2.4 5.4 5.4 5.4s5.4-2.4 5.4-5.4c0-3-2.4-5.4-5.4-5.4M26.8 30H5.2C3.4 30 2 28.6 2 26.8V5.2C2 3.4 3.4 2 5.2 2h21.5C28.6 2 30 3.4 30 5.2v21.5c0 1.9-1.4 3.3-3.2 3.3"/></svg>