<?xml version="1.0" encoding="utf-8"?>
<!-- Generator: Adobe Illustrator 18.1.1, SVG Export Plug-In . SVG Version: 6.00 Build 0)  -->
<!DOCTYPE svg PUBLIC "-//W3C//DTD SVG 1.1//EN" "http://www.w3.org/Graphics/SVG/1.1/DTD/svg11.dtd">
<svg version="1.1" id="Layer_1" xmlns="http://www.w3.org/2000/svg" xmlns:xlink="http://www.w3.org/1999/xlink" x="0px" y="0px"
	 viewBox="0 0 32 32" enable-background="new 0 0 32 32" xml:space="preserve">
<path fill="#AD29B6" d="M30.6,12.8H20.2L14,18.9h8.4C21.4,21.3,18.9,23,16,23c-3.9,0-7-3.2-7-7C9,12.1,12.1,9,16,9
	c1.4,0,2.7,0.4,3.8,1.1l5.7-5.7C22.9,2.3,19.6,1,16,1C7.7,1,1,7.7,1,16c0,8.3,6.7,15,15,15c8.3,0,15-6.7,15-15
	C31,14.9,30.9,13.8,30.6,12.8"/>
</svg>
