<svg xmlns="http://www.w3.org/2000/svg" viewBox="0 0 32 32" enable-background="new 0 0 32 32"><path fill="#5FCF80" d="M26.6 6.5c-1-.6-2.6.3-3.5 2l-1.7 3c-.6 1.3-.6 2.8.3 3.9l.1.1c.8 1.2 1.9 2.2 2.3 2.6.2.2.4.5.5.8.3 1.1-.3 2.1-1.4 2.4-1.1.3-2.1-.3-2.4-1.4-.1-.3-.1-.5-.1-.8.1-.4-.1-1.1-.7-1.8s-1.9.6-2.3 2v.1c-.4 1.4-.7 2.5-.6 2.6 0 .1.1.1.1.2.6 1.1.2 2.4-.9 3-1.1.6-2.4.2-3-.9-.6-1.1-.2-2.4.9-3l.1-.1c.1 0 .3-.6.5-1.3.2-.7.4-1.2.4-1.2 0-.1 0-.1.1-.2l1.1-3.9-1.2 2.4c-.1-.5-.4-.5-.9-.1-.3.2-.8.6-1.1.8-.5.3-.9 1-1.1 1.4-.1.2-.3.4-.5.6-.8.7-2.1.6-2.8-.3-.7-.8-.6-2.1.3-2.8.2-.2.5-.3.8-.4.5-.1 2.2-1.1 3.2-1.9.2-.1.3-.3.5-.4l2.7-2.1-2.4 1.3h-.5c-.9.1-1.8.2-1.9.4-.1.1-.2.2-.4.3-.8.6-1.9.4-2.5-.4-.6-.8-.4-1.9.4-2.5.3-.2.7-.3 1.1-.3.6 0 2.3.4 3.7.1l.4-.1c1.4-.2 3.1-1.5 3.7-2.7 0 0 .7-1.1 1.5-2.6.8-1.4.7-3-.1-3.4L17.7 1c-.8-.5-2.1-.5-2.9 0L3.6 7.5c-.8.4-1.4 1.6-1.4 2.5v12c0 .9.7 2 1.5 2.5l10.9 6.2c.8.5 2.1.5 2.9 0l10.9-6.2c.8-.5 1.5-1.6 1.5-2.5V10c0-.9-.7-2-1.5-2.5 0 0-.8-.5-1.8-1z"/></svg>