<svg xmlns="http://www.w3.org/2000/svg" viewBox="0 0 32 32" enable-background="new 0 0 32 32"><path fill="#55ACEE" d="M10.1 29C6.4 29 2.9 27.9 0 26.1c.5.1 1 .1 1.6.1 3.1 0 5.9-1 8.2-2.8-2.9-.1-5.3-2-6.1-4.6.4.1.8.1 1.2.1.6 0 1.2-.1 1.7-.2-3-.6-5.3-3.3-5.3-6.4v-.1c.9.5 1.9.8 3 .8-1.8-1.2-2.9-3.2-2.9-5.5 0-1.2.3-2.3.9-3.3 3.2 4 8.1 6.6 13.5 6.9-.1-.5-.2-1-.2-1.5C15.6 6 18.5 3 22.2 3c1.9 0 3.6.8 4.8 2.1 1.5-.3 2.9-.8 4.2-1.6-.5 1.5-1.5 2.8-2.9 3.6 1.3-.2 2.6-.5 3.8-1-.9 1.3-2 2.5-3.3 3.4v.8C28.7 19 22.1 29 10.1 29"/></svg>