<svg xmlns="http://www.w3.org/2000/svg" viewBox="0 0 32 32" enable-background="new 0 0 32 32"><path fill-rule="evenodd" clip-rule="evenodd" fill="#0074E4" d="M1.4 28.7L2.7 25c3.4-1.5 11.7-4.6 22-5.3-.2.8-1.3 3.5-1.5 4.4-9.9.5-20.7 4.1-21.8 4.6zm1.7-4.8c3.2-3.2 14.5-13.6 14.5-13.6-5.9 1.4-12 3.2-14.2 4.2L0 17.9c2.8-.6 3.7-.7 5.7-1l-2.6 7zM17.4 3.3c-1.8.8-6.9 4.7-9.6 6.8 3.4-1.1 11.4-2.9 15.5-3-1.3-.8-4.9-3.3-5.9-3.8zm6.7 4.4s-10 10-11.6 11.4c3-1.1 9.3-2.4 13.2-2.6.5-1.4.9-2.4.9-2.4l5.3-.5c.1-.1-3.9-3.3-7.8-5.9z"/></svg>