<?xml version="1.0" encoding="utf-8"?>
<!-- Generator: Adobe Illustrator 18.1.1, SVG Export Plug-In . SVG Version: 6.00 Build 0)  -->
<!DOCTYPE svg PUBLIC "-//W3C//DTD SVG 1.1//EN" "http://www.w3.org/Graphics/SVG/1.1/DTD/svg11.dtd">
<svg version="1.1" id="Layer_1" xmlns="http://www.w3.org/2000/svg" xmlns:xlink="http://www.w3.org/1999/xlink" x="0px" y="0px"
	 viewBox="0 0 32 32" enable-background="new 0 0 32 32" xml:space="preserve">
<path fill-rule="evenodd" clip-rule="evenodd" fill="#0074E4" d="M1.4,28.7L2.7,25c3.4-1.5,11.7-4.6,22-5.3
	c-0.2,0.8-1.3,3.5-1.5,4.4C13.3,24.6,2.5,28.2,1.4,28.7L1.4,28.7z M3.1,23.9c3.2-3.2,14.5-13.6,14.5-13.6c-5.9,1.4-12,3.2-14.2,4.2
	L0,17.9c2.8-0.6,3.7-0.7,5.7-1L3.1,23.9L3.1,23.9z M17.4,3.3c-1.8,0.8-6.9,4.7-9.6,6.8c3.4-1.1,11.4-2.9,15.5-3
	C22,6.3,18.4,3.8,17.4,3.3L17.4,3.3z M24.1,7.7c0,0-10,10-11.6,11.4c3-1.1,9.3-2.4,13.2-2.6c0.5-1.4,0.9-2.4,0.9-2.4l5.3-0.5
	C32,13.5,28,10.3,24.1,7.7L24.1,7.7z"/>
</svg>
